<?xml version="1.0" encoding="UTF-8"?>
<svg id="Layer_2" xmlns="http://www.w3.org/2000/svg" viewBox="0 0 851.98 379.07">
  <defs>
    <style>
      .cls-1 {
        fill: #fff;
      }

      .cls-2 {
        fill: #b55725;
      }
    </style>
  </defs>
  <g id="Layer_1-2" data-name="Layer_1">
    <g>
      <path class="cls-1" d="M156.75,72.25c7.8,0,14.94.64,21.43,1.91,6.48,1.27,11.88,2.65,16.19,4.15,4.31,1.5,7.01,2.65,8.1,3.47l-15.1,28.03c-1.63-1.18-4.79-2.74-9.46-4.69-4.67-1.95-9.82-2.93-15.44-2.93-3.72,0-6.78.43-9.18,1.29-2.4.86-3.61,2.34-3.61,4.42s1.41,3.65,4.22,4.97c2.81,1.32,7.08,2.47,12.79,3.47,5.17,1,10.61,2.65,16.33,4.97,5.71,2.31,10.55,5.81,14.49,10.48,3.95,4.67,5.92,10.91,5.92,18.71,0,8.35-1.82,15.13-5.44,20.34-3.63,5.22-8.37,9.25-14.22,12.11s-12.16,4.83-18.91,5.92c-6.76,1.09-13.22,1.63-19.39,1.63-9.07,0-16.92-.79-23.54-2.38-6.62-1.59-11.91-3.38-15.85-5.37-3.95-1.99-6.65-3.54-8.1-4.63l14.83-31.16c2.36,1.9,6.19,4.08,11.5,6.53,5.31,2.45,10.82,3.67,16.53,3.67,5.08,0,8.91-.57,11.5-1.7,2.59-1.13,3.88-2.7,3.88-4.69,0-1.54-.64-2.81-1.9-3.81-1.27-1-3.13-1.91-5.58-2.72s-5.53-1.59-9.25-2.31c-3.36-.63-7.08-1.7-11.16-3.2-4.08-1.5-7.96-3.61-11.63-6.33-3.67-2.72-6.71-6.19-9.12-10.41-2.4-4.22-3.61-9.37-3.61-15.44,0-7.8,2.54-14.22,7.62-19.25,5.08-5.03,11.63-8.8,19.66-11.29,8.03-2.49,16.53-3.74,25.51-3.74Z"/>
      <path class="cls-1" d="M268.6,190.5c-12.52,0-23.63-2.5-33.34-7.48-9.71-4.99-17.33-11.91-22.86-20.75-5.53-8.84-8.3-19.03-8.3-30.55s2.77-21.75,8.3-30.68c5.53-8.93,13.15-15.97,22.86-21.09,9.71-5.12,20.82-7.69,33.34-7.69s23.43,2.56,33,7.69c9.57,5.13,17.05,12.16,22.45,21.09,5.4,8.94,8.1,19.16,8.1,30.68s-2.7,21.7-8.1,30.55c-5.4,8.84-12.88,15.76-22.45,20.75-9.57,4.99-20.57,7.48-33,7.48ZM268.6,151.17c3.72,0,6.94-.79,9.66-2.38,2.72-1.59,4.81-3.88,6.26-6.87,1.45-2.99,2.18-6.48,2.18-10.48s-.73-7.35-2.18-10.34c-1.45-2.99-3.54-5.33-6.26-7.01-2.72-1.68-5.94-2.52-9.66-2.52s-7.08.84-9.8,2.52c-2.72,1.68-4.85,4.01-6.4,7.01-1.54,2.99-2.31,6.44-2.31,10.34s.77,7.48,2.31,10.48c1.54,2.99,3.67,5.29,6.4,6.87,2.72,1.59,5.99,2.38,9.8,2.38Z"/>
      <path class="cls-1" d="M401.81,153.08c4.35,0,8.03-.79,11.02-2.38,2.99-1.59,5.08-2.97,6.26-4.15l21.77,32.38c-1.63,1.36-4.24,2.95-7.82,4.76-3.58,1.82-8.03,3.4-13.33,4.76s-11.36,2.04-18.17,2.04c-13.88,0-25.83-2.5-35.85-7.48-10.02-4.99-17.74-11.93-23.13-20.82-5.4-8.89-8.1-19.19-8.1-30.89s2.7-22.11,8.1-30.96c5.4-8.84,13.11-15.74,23.13-20.68,10.02-4.94,21.98-7.42,35.85-7.42,6.62,0,12.61.66,17.96,1.97,5.35,1.32,9.91,2.86,13.67,4.63,3.76,1.77,6.46,3.33,8.1,4.69l-22.32,32.52c-.54-.54-1.59-1.34-3.13-2.38-1.54-1.04-3.47-1.97-5.78-2.79s-5.06-1.22-8.23-1.22c-3.99,0-7.6,1-10.82,2.99-3.22,2-5.78,4.6-7.69,7.82-1.9,3.22-2.86,6.83-2.86,10.82s.95,7.62,2.86,10.89c1.91,3.27,4.47,5.9,7.69,7.89,3.22,2,6.82,2.99,10.82,2.99Z"/>
      <path class="cls-1" d="M466.72,58.37c-7.35,0-13.59-2.59-18.71-7.76-5.13-5.17-7.69-11.34-7.69-18.51s2.56-13.38,7.69-18.64c5.12-5.26,11.36-7.89,18.71-7.89,4.81,0,9.21,1.2,13.2,3.61,3.99,2.4,7.21,5.6,9.66,9.59,2.45,3.99,3.67,8.44,3.67,13.33,0,7.17-2.61,13.33-7.82,18.51-5.22,5.17-11.45,7.76-18.71,7.76ZM442.09,187.23v-111.71h48.03v111.71h-48.03Z"/>
      <path class="cls-1" d="M587.54,187.23v-16.74c-.91,1.72-2.95,4.2-6.12,7.42-3.18,3.22-7.37,6.12-12.59,8.71-5.22,2.59-11.32,3.88-18.3,3.88-11.07,0-20.64-2.72-28.71-8.16-8.07-5.44-14.31-12.65-18.71-21.64-4.4-8.98-6.6-18.73-6.6-29.26s2.2-20.27,6.6-29.26c4.4-8.98,10.63-16.21,18.71-21.7,8.07-5.49,17.64-8.23,28.71-8.23,6.62,0,12.4,1,17.35,2.99,4.94,2,9.03,4.35,12.25,7.08,3.22,2.72,5.51,5.31,6.87,7.76v-14.56h47.9v111.71h-47.35ZM543.73,131.44c0,3.99.95,7.64,2.86,10.95,1.9,3.31,4.49,5.92,7.76,7.82s6.98,2.86,11.16,2.86,7.87-.95,11.09-2.86c3.22-1.9,5.76-4.51,7.62-7.82,1.86-3.31,2.79-6.96,2.79-10.95s-.93-7.64-2.79-10.95c-1.86-3.31-4.4-5.94-7.62-7.89-3.22-1.95-6.92-2.93-11.09-2.93s-7.89.98-11.16,2.93c-3.27,1.95-5.85,4.58-7.76,7.89-1.91,3.31-2.86,6.96-2.86,10.95Z"/>
      <path class="cls-1" d="M693.27,187.23h-48.31V0h48.31v187.23Z"/>
      <path class="cls-1" d="M0,205.91h55.4c18.12,0,33.18,3.63,45.16,10.89,11.98,7.26,20.98,17.29,26.99,30.08,6.01,12.8,9.02,27.44,9.02,43.93s-3.01,31.26-9.02,44.06c-6.01,12.8-15.01,22.85-26.99,30.15-11.98,7.3-27.04,10.95-45.16,10.95H0v-170.06ZM44.84,245.46v90.96h6.57c8.25,0,15.14-2,20.68-5.99,5.54-3.99,9.75-9.42,12.63-16.3,2.88-6.87,4.32-14.56,4.32-23.06s-1.42-16.32-4.25-23.19c-2.83-6.87-7.04-12.32-12.63-16.36-5.58-4.04-12.5-6.06-20.74-6.06h-6.57Z"/>
      <path class="cls-1" d="M145.33,205.91h44.84v170.06h-44.84v-170.06Z"/>
      <path class="cls-1" d="M245.95,246.75l3.35.64v128.58h-44.83v-170.06h60.81l61.46,128.32-3.22.64v-128.97h44.71v170.06h-61.07l-61.2-129.22Z"/>
      <path class="cls-1" d="M383.54,205.91h44.83v170.06h-44.83v-170.06Z"/>
      <path class="cls-1" d="M484.16,246.75l3.35.64v128.58h-44.83v-170.06h60.81l61.46,128.32-3.22.64v-128.97h44.71v170.06h-61.07l-61.2-129.22Z"/>
      <path class="cls-1" d="M703.82,279.86h86.96v11.34c0,12.37-2.02,23.86-6.06,34.46-4.04,10.61-9.86,19.93-17.46,27.96-7.6,8.03-16.68,14.28-27.25,18.75s-22.33,6.7-35.3,6.7-25.64-2.25-36.46-6.76c-10.82-4.51-20.12-10.78-27.89-18.81-7.77-8.03-13.74-17.39-17.91-28.09-4.17-10.69-6.25-22.22-6.25-34.59s2.08-23.77,6.25-34.46c4.17-10.69,10.13-20.05,17.91-28.09,7.77-8.03,17.07-14.28,27.89-18.75,10.82-4.46,22.97-6.7,36.46-6.7,11.6,0,21.73,1.27,30.41,3.8,8.67,2.53,16.04,5.82,22.1,9.86,6.05,4.04,11.1,8.44,15.14,13.21,4.04,4.77,7.3,9.3,9.79,13.59l-42.9,19.71c-2.83-4.72-6.91-8.97-12.24-12.75-5.33-3.78-12.75-5.67-22.29-5.67-6.27,0-11.96,1.22-17.07,3.67-5.11,2.45-9.51,5.8-13.21,10.05-3.69,4.25-6.53,9.17-8.5,14.75-1.98,5.58-2.96,11.51-2.96,17.78s.99,12.33,2.96,17.91c1.97,5.58,4.81,10.5,8.5,14.75,3.69,4.25,8.09,7.58,13.21,9.98,5.11,2.41,10.8,3.61,17.07,3.61,5.15,0,9.83-.51,14.04-1.55,4.21-1.03,7.81-2.58,10.82-4.64,3-2.06,5.41-4.53,7.21-7.41,1.8-2.88,2.92-6.12,3.35-9.73h-36.33v-33.88Z"/>
      <path class="cls-2" d="M826.22,379.07c-7.04,0-13.08-2.51-18.1-7.54-5.03-5.02-7.54-11.06-7.54-18.1s2.51-13.33,7.54-18.36c5.02-5.03,11.06-7.54,18.1-7.54s13.21,2.51,18.23,7.54,7.54,11.14,7.54,18.36-2.51,13.08-7.54,18.1-11.1,7.54-18.23,7.54Z"/>
    </g>
  </g>
</svg>